<?xml version="1.0" encoding="UTF-8"?>
<svg id="Layer_1" data-name="Layer 1" xmlns="http://www.w3.org/2000/svg" viewBox="0 0 1500 1500">
  <defs>
    <style>
      .cls-1 {
        fill: #fff;
      }
    </style>
  </defs>
  <rect width="1500" height="1500"/>
  <g>
    <path class="cls-1" d="M1382.95,676.37c-2.71-4.43-13.75-2.1-27.13.86-41.14,9.11-82.39,18.08-123.86,25.55-2.55-18.19-6.15-36.24-10.8-54.02-13.36-51.12-36.59-100.82-71.55-140.73-49.09-56.04-128.79-80.54-199.76-53.97-42.22,15.81-75.9,44.22-100.09,82.2-11.81,18.54-20.72,39.51-26.15,60.8-10.88,42.68-14.5,86.69-7.23,130.36,4.7,28.26,16.43,56.01,37.89,75.57,13.86,12.64,30.96,20.76,48.31,27.46,27.98,10.8,58.32,16.7,88.09,19.52,61.13,5.8,123.29.72,184.2-8.04-8.13,17-17.71,33.25-28.86,48.47-24.65,31.22-55.89,56.28-92.38,72.33-61.49,24.48-129.29,20.88-190.13-3.69-43.83-18.99-82.03-48.47-111.44-86.13-5.16-7.08-10.02-14.37-14.54-21.86-1.27-2.4-2.56-4.79-3.88-7.16-1.54-2.76-3.11-5.5-4.77-8.19-3.76-6.08-8.9-11.61-16.02-6.55-7.45,5.3-11.09,22.26-12.43,29.87-2.88,16.4-3.86,33.51-2.1,50.08,2.31,21.73,9.28,42.63,18,62.56,4.28,9.79,8.94,19.43,13.85,28.91,4.39,8.49,10.1,16.72,13.04,25.85,2.93,9.11,3.4,18.93,2.22,28.38-3.23,25.82-15.24,50.86-31.24,71.12-28.3,35.84-66.65,61.01-108.3,78.95-110.74,47.7-256.25,31.85-349.09-47.09-43.59-37.06-76.29-86.83-91.16-142.21-10.36-38.6-4.8-80.37,8.84-117.44,12.84-34.87,33-67.88,56.72-96.41,21.01-25.27,36.58-48.96,34.74-83.22-1.01-18.84-2.23-37.69-9.98-55.18-1.45-3.27-3.26-6.66-6.43-8.32-5.72-3-12.52,1.02-17.49,5.14-28.95,24-49.12,56.97-65.06,91.03-72.48,154.92-73.83,359.49,42.28,494.09,100,115.93,273.88,150.77,412.2,84.69,109.93-52.52,173.97-163.77,164.73-285.72,17.7,14.37,37.08,26.68,57.9,36.44,63.67,29.84,139.57,37.52,206.91,12.88,70.63-25.85,122.16-85.03,151.1-153.12,14.66-34.5,24.54-70.75,29.83-107.67,15.68-3.4,29.67-6.59,41.68-9.41,25.84-6.06,33.42-8.26,42.93-13.82,17.14-10.01,22.9-20.6,24.29-23.34,3.4-6.66,4.54-12.82,5.21-16.67,2.33-13.22.12-22.53-.35-27.78-2.79-30.97,42.92-56.11,37.26-65.36ZM744.41,1051.8c.09,1.23.18,2.47.26,3.7,0,0,0,0,0,0-.1-1.39-.18-2.61-.26-3.71ZM744.72,1056.22h0c.03.43.06.86.09,1.29-.03-.45-.06-.86-.09-1.29ZM851.32,658.76c-.55-1.96-.87-3.45,0,0h0ZM1007.71,721.3c-36.43-2.12-73.76-8.26-107.81-21.9-15.42-6.88-29.86-15.92-41.16-28.47.68-1.57,1.32-3.16,2.06-4.67,4.55-9.33,9.94-18.18,15.98-26.6,18.66-23.38,42.42-42.13,69.78-54.32,40.74-15.94,86.89-16.09,127.63-.15,28.85,12.86,53.02,33.35,72.48,58.05,6.98,9.61,13.3,19.67,18.99,30.1,2.98,5.46,5.79,11.02,8.43,16.65,1.2,2.55,2.37,5.12,3.5,7.7.06.15.13.3.19.44,1.63,4.28,3.13,8.57,4.55,12.89-57.83,8.64-116.48,13.67-174.62,10.29Z"/>
    <path class="cls-1" d="M899.08,278.82c9.18-32.17,30.16-59.83,57.7-78.66,27.52-18.82,70.29-33.57,100.36-11.92,4.55,3.27,8.57,7.29,12,11.76-17.52-12.82-40.76-14.47-61.53-10.11-20.47,4.31-42.12,13.52-56.5,29.16-29.67,32.26-25.89,93.21,6.01,122.89,30.66,28.53,80.92,18.93,107.65-10.1,9.42-10.23,16.54-22.26,21.63-35.28,4.58-8.1,7.56-17.19,8.63-27.39.41-3.9.59-7.85.53-11.81.44-4.46.69-8.94.77-13.42,32.36.16,65.25,14.43,79.23,45.31,3.8,8.4,8.38-4.24,8.99-7.36,1.75-9.03,1.49-19.59-2.36-28.08-15.79-34.88-53.31-52-90.04-50.84-.62-2.73-1.29-5.43-2.04-8.08-5.44-19.4-16.49-39.21-34.48-49.46-19.49-11.1-42.75-10.34-63.61-3.8-39.25,12.31-72.2,41.94-90.63,78.48-4.78,9.49-8.68,19.46-11.59,29.68-2.59,9.08-3.04,19.98,0,29.02,2.28,6.78,7.08,7.75,9.29,0ZM1073.87,270.02c-11.27,12.25-27.33,22.39-42.79,28.44-13.45,5.26-30.35,7.62-40.19-4.58.92-1.71,2.01-3.37,3.15-4.89,5.89-7.85,14.38-13.85,22.58-19.05,17.35-11.01,36.41-19.66,56.61-23.7.32.33.65.64.96.99,2.52,2.78,4.67,5.9,6.35,9.26-.4,1.54-.83,3.08-1.33,4.64-.46,1.43-.97,2.84-1.51,4.23-1.18,1.64-2.47,3.19-3.83,4.67ZM944.56,275.95s0,.07,0,.12c-.04-.11-.07-.2-.1-.29,0-.01.01-.03.02-.04.03.07.06.14.09.21ZM944.61,276.06s0,0,0,0c0,.06,0,.11,0,.16,0-.01,0-.03-.01-.04,0-.04,0-.08.01-.12ZM944.47,275.71s-.01.03-.02.04c-.2-.56-.13-.4.02-.04ZM947.24,283.72c-.51-1.16-.96-2.38-1.36-3.58.11.33-1.77-5.31-.88-2.86-.15-.42-.27-.75-.37-1.02,0-.05,0-.1,0-.16.34.8.77,1.71.09-.65,0,0,0,0,0,0,0,0,0,0,0,0-.01-.04-.03-.09-.04-.14,0,0,0,0,0-.01.15-.33.26-.56.23-.43.32-.99.56-1.93.97-2.93,1.28-3.15,3.16-6.25,5.16-9,5.13-7.06,12.24-12.78,19.57-17.4,12.99-8.18,28.22-13.65,43.58-15.81-.35.22-.7.43-1.05.65-20.33,12.89-34.01,30.09-36.47,54.63-.87,8.64-.77,18.89,1.31,28.4-6.85-2.82-13.18-6.89-18.68-12.31-5.04-4.97-9.2-10.87-12.05-17.37Z"/>
    <path class="cls-1" d="M386.04,617.46c7.4-23.8,28.89-42.53,52.54-49.42,11.27-3.28,22.8-3.85,33.89-1.99-28.94,4.46-54.57,30.64-62.83,57.4-10.8,35-4.78,86.57,34.28,100.75,32.27,11.72,66.53-6.28,85.17-32.66,21.29-30.12,25.12-74.7,11.94-108.74-12.96-33.46-45.36-59.8-82.3-58.97-38.15.85-70.88,28.94-81.97,64.6-2.78,8.94-2.99,20.1,0,29.02,2.33,6.94,6.93,7.58,9.29,0ZM428.05,636.88c.14.02.26.14.36.33-.18-.2-.31-.33-.36-.33ZM418.23,655.81s0-.05.01-.07c0,.02.01.03.02.05,0,.02-.01.04-.02.07,0-.02-.01-.03-.01-.05ZM418.38,655.43l-.03-.26c.03-.15.05-.3.07-.45.64-1.23.26-.23-.05.7ZM433.27,643.21c-.33-.24-.97-1.02-1.69-1.94,2.24-3.62,4.9-6.72,8.58-9.6,8.28-6.48,18.59-9.94,29.02-10.77,8.08-.65,15.98.88,23.31,3.95-5.49,4.93-11.6,9.19-17.81,13.15-11.58,7.39-28.75,14.67-41.4,5.21ZM531.57,611.53c1.66,3.84,2.98,7.89,3.29,12.08.33,4.39-.67,8.72-2.04,12.86-1.68,5.11-4.06,9.98-6.91,14.55-5.97,9.57-14.03,17.93-23.41,24.2-4.37,2.92-9.07,5.39-14.01,7.2-8.58,3.15-18.37,4.65-27.92,4.07,14.5-4.45,28.97-15.15,38.95-25.44,6.21-6.4,10.66-13.94,13.59-22.05,2.05,2.08,3.97,4.26,5.72,6.56,4.46,5.86,7.96-12.99,8.08-14.33.74-8.22.62-18.4-4.59-25.25-1.81-2.37-3.8-4.64-5.94-6.78-.1-.67-.19-1.35-.31-2.02-.72-4.06-1.88-7.87-3.43-11.37,7.96,7.18,14.65,15.86,18.92,25.73Z"/>
  </g>
</svg>